name 900006_16.mot
datacolumns 153
datarows 4
range 0.70833331 0.73333329
endheader

                time	           pelvis_tx	           pelvis_ty	           pelvis_tz	         pelvis_tilt	         pelvis_list	     pelvis_rotation	       hip_flexion_r	     hip_adduction_r	      hip_rotation_r	        knee_angle_r	       ankle_angle_r	    subtalar_angle_r	         mtp_angle_r	       hip_flexion_l	     hip_adduction_l	      hip_rotation_l	        knee_angle_l	       ankle_angle_l	    subtalar_angle_l	         mtp_angle_l	    lumbar_extension	      lumbar_bending	     lumbar_rotation	     ground_force_vx	     ground_force_vy	     ground_force_vz	     ground_force_px	     ground_force_py	     ground_force_pz	     ground_force_vx	     ground_force_vy	     ground_force_vz	     ground_force_px	     ground_force_py	     ground_force_pz	     ground_torque_x	     ground_torque_y	     ground_torque_z	     ground_torque_x	     ground_torque_y	     ground_torque_z	    ground_marker_px	    ground_marker_py	    ground_marker_pz	    ground_marker_px	    ground_marker_py	    ground_marker_pz	    ground_marker_px	    ground_marker_py	    ground_marker_pz	    ground_marker_px	    ground_marker_py	    ground_marker_pz	    ground_marker_px	    ground_marker_py	    ground_marker_pz	    ground_marker_px	    ground_marker_py	    ground_marker_pz	    ground_marker_px	    ground_marker_py	    ground_marker_pz	    ground_marker_px	    ground_marker_py	    ground_marker_pz	    ground_marker_px	    ground_marker_py	    ground_marker_pz	    ground_marker_px	    ground_marker_py	    ground_marker_pz	    ground_marker_px	    ground_marker_py	    ground_marker_pz	    ground_marker_px	    ground_marker_py	    ground_marker_pz	    ground_marker_px	    ground_marker_py	    ground_marker_pz	    ground_marker_px	    ground_marker_py	    ground_marker_pz	    ground_marker_px	    ground_marker_py	    ground_marker_pz	    ground_marker_px	    ground_marker_py	    ground_marker_pz	    ground_marker_px	    ground_marker_py	    ground_marker_pz	    ground_marker_px	    ground_marker_py	    ground_marker_pz	    ground_marker_px	    ground_marker_py	    ground_marker_pz	    ground_marker_px	    ground_marker_py	    ground_marker_pz	    ground_marker_px	    ground_marker_py	    ground_marker_pz	    ground_marker_px	    ground_marker_py	    ground_marker_pz	    ground_marker_px	    ground_marker_py	    ground_marker_pz	    ground_marker_px	    ground_marker_py	    ground_marker_pz	    ground_marker_px	    ground_marker_py	    ground_marker_pz	    ground_marker_px	    ground_marker_py	    ground_marker_pz	    ground_marker_px	    ground_marker_py	    ground_marker_pz	    ground_marker_px	    ground_marker_py	    ground_marker_pz	    ground_marker_px	    ground_marker_py	    ground_marker_pz	    ground_marker_px	    ground_marker_py	    ground_marker_pz	    ground_marker_px	    ground_marker_py	    ground_marker_pz	    ground_marker_px	    ground_marker_py	    ground_marker_pz	    ground_marker_px	    ground_marker_py	    ground_marker_pz	    ground_marker_px	    ground_marker_py	    ground_marker_pz	    ground_marker_px	    ground_marker_py	    ground_marker_pz	    ground_marker_px	    ground_marker_py	    ground_marker_pz	    ground_marker_px	    ground_marker_py	    ground_marker_pz	
          0.70833331	          1.86700273	          0.82723618	         -0.25909609	          3.16064835	         -2.26864100	          3.20517206	         20.09336853	          2.18996596	         -2.63968468	        -15.03607178	         -2.29647827	          0.00000000	          0.00000000	        -14.31169701	          0.76884699	         -6.87195539	        -23.17818451	          8.35625458	          0.00000000	          0.00000000	         -4.09816408	          3.48160243	         -4.24614096	        -38.12790184	        240.92993673	          9.04782199	          1.97150525	          0.00000000	         -0.20458601	         54.89736499	        301.46137679	         -7.09615856	          1.62272461	          0.00000000	         -0.27494940	          0.00000000	         -0.21276044	          0.00000000	          0.00000000	          0.25211707	          0.00000000	          1.83284330	          0.75406301	         -0.26308310	          1.82847142	          0.75256455	         -0.20584175	          1.83721530	          0.75556153	         -0.32032442	          1.90276885	          0.41224822	         -0.19725490	          1.69926977	          0.43020198	         -0.30164206	          1.98698938	          0.06593869	         -0.20580381	          1.52144957	          0.11247025	         -0.27636489	          1.86700273	          0.82723618	         -0.25909609	          1.87372625	          0.83057612	         -0.14970917	          1.86027920	          0.82389617	         -0.36848298	          1.69281006	          0.85621053	         -0.20988131	          1.69050157	          0.85459507	         -0.26350382	          1.93869114	          0.42185825	         -0.13793392	          1.71359932	          0.40625075	         -0.35811782	          1.90936172	          0.41799545	         -0.26051888	          1.73812449	          0.41522813	         -0.23936743	          1.98208261	          0.06406207	         -0.16867362	          1.51305103	          0.11502469	         -0.31179357	          1.98939276	          0.06233603	         -0.23941058	          1.52020431	          0.11711290	         -0.24282221	          1.85592687	          1.17923582	         -0.25550580	          1.86507654	          1.07760096	         -0.26088724	          1.74802566	          1.24852967	         -0.24916907	          2.06963634	          0.05790313	         -0.20303863	          1.59175742	          0.05465343	         -0.28356847	          2.00290775	          0.58932060	         -0.17282473	          1.85640788	          0.53378642	         -0.39497650	          1.94364786	          0.60666174	         -0.13010032	          1.85675788	          0.58168811	         -0.32789063	          1.95000994	          0.55048567	         -0.13769978	          1.83546329	          0.52772564	         -0.31625402	          2.08180571	          0.20532194	         -0.17914149	          1.56143177	          0.19675526	         -0.40860251	          2.00937557	          0.17759697	         -0.19701403	          1.56259334	          0.19289331	         -0.32923904	          1.85799778	          1.17785323	         -0.19870524	          1.85943973	          1.18100870	         -0.30606079	
          0.71666664	          1.87500083	          0.82834172	         -0.25874639	          3.21088886	         -2.31425405	          3.05584955	         19.73947716	          2.38577604	         -1.87839925	        -15.55484009	         -2.36067176	          0.00000000	          0.00000000	        -14.13050461	          0.50383842	         -6.54358625	        -24.44432640	          6.98691607	          0.00000000	          0.00000000	         -3.98258591	          3.88095713	         -3.95051908	        -41.93217080	        251.92992755	          5.78072505	          1.97481665	          0.00000000	         -0.20383755	         53.60520172	        273.42311024	         -8.17412512	          1.62360730	          0.00000000	         -0.27453751	          0.00000000	         -0.21491415	          0.00000000	          0.00000000	          0.28481299	          0.00000000	          1.84090328	          0.75519508	         -0.26270810	          1.83637536	          0.75378299	         -0.20547669	          1.84543133	          0.75660717	         -0.31993952	          1.91091907	          0.41349122	         -0.19723655	          1.70786703	          0.43248612	         -0.30247012	          1.98796558	          0.06557743	         -0.20567536	          1.52584755	          0.11640485	         -0.27738625	          1.87500083	          0.82834172	         -0.25874639	          1.88145328	          0.83181810	         -0.14933927	          1.86854839	          0.82486528	         -0.36815348	          1.70066500	          0.85719579	         -0.21042077	          1.69872785	          0.85545498	         -0.26407063	          1.94541955	          0.42251092	         -0.13801160	          1.72347391	          0.40643856	         -0.35932392	          1.91661203	          0.41844767	         -0.25983834	          1.74420345	          0.41618338	         -0.24147865	          1.98337662	          0.06383342	         -0.16849810	          1.51746380	          0.11911556	         -0.31280679	          1.98973680	          0.06194880	         -0.23929170	          1.52543354	          0.12079663	         -0.24390785	          1.86328650	          1.18041408	         -0.25472260	          1.87269783	          1.07883835	         -0.26073399	          1.75508928	          1.24946606	         -0.24802971	          2.07060742	          0.05626311	         -0.20337331	          1.59416199	          0.05536889	         -0.28404212	          2.01022601	          0.58982289	         -0.17416663	          1.86627269	          0.53470582	         -0.39476079	          1.95229781	          0.60850602	         -0.13154884	          1.86594045	          0.58280218	         -0.32666475	          1.95861471	          0.55189252	         -0.13873643	          1.84361494	          0.52799028	         -0.31564817	          2.08514214	          0.20370504	         -0.18011180	          1.56723821	          0.20007554	         -0.40969008	          2.01194859	          0.17672768	         -0.19701850	          1.56887221	          0.19553611	         -0.33064318	          1.86552012	          1.17871642	         -0.19842361	          1.86665237	          1.18247998	         -0.30478886	
          0.72499996	          1.88299072	          0.82958281	         -0.25830212	          3.25152206	         -2.34027696	          2.89720058	         19.32195473	          2.55463648	         -1.16613495	        -15.97151279	         -2.31411624	          0.00000000	          0.00000000	        -13.87440586	          0.21913481	         -6.15738344	        -25.76458549	          5.38835526	          0.00000000	          0.00000000	         -3.82417035	          4.31317139	         -3.67672253	        -45.12841026	        262.57235576	          1.72457763	          1.97806384	          0.00000000	         -0.20310181	         51.58037396	        242.34335923	         -8.71894872	          1.62434143	          0.00000000	         -0.27424411	          0.00000000	         -0.19364030	          0.00000000	          0.00000000	          0.31122913	          0.00000000	          1.84894252	          0.75645077	         -0.26227164	          1.84424448	          0.75511277	         -0.20505217	          1.85364056	          0.75778884	         -0.31949115	          1.91732693	          0.41474298	         -0.19702086	          1.72358751	          0.42838016	         -0.30397907	          1.98870301	          0.06528325	         -0.20553270	          1.53086853	          0.12047200	         -0.27842057	          1.88299072	          0.82958281	         -0.25830212	          1.88915002	          0.83316046	         -0.14885722	          1.87683141	          0.82600516	         -0.36774701	          1.70849144	          0.85835260	         -0.21095133	          1.70718002	          0.85641849	         -0.26460814	          1.95167017	          0.42304105	         -0.13793154	          1.73378694	          0.40666404	         -0.36074024	          1.92191029	          0.41863674	         -0.25795719	          1.76140451	          0.41184908	         -0.24271473	          1.98440254	          0.06364109	         -0.16831632	          1.52241230	          0.12337957	         -0.31380826	          1.99025810	          0.06147780	         -0.23913264	          1.53118837	          0.12484901	         -0.24501275	          1.87070584	          1.18167984	         -0.25396413	          1.88044202	          1.08017969	         -0.26069278	          1.76228333	          1.25035727	         -0.24715610	          2.07130289	          0.05488975	         -0.20356356	          1.59681833	          0.05603039	         -0.28456283	          2.01733565	          0.59012717	         -0.17523749	          1.87648606	          0.53586602	         -0.39453092	          1.96055758	          0.61016810	         -0.13240281	          1.87491262	          0.58403695	         -0.32606897	          1.96643996	          0.55299586	         -0.13904689	          1.85563099	          0.52971685	         -0.31599957	          2.08812904	          0.20217268	         -0.18091115	          1.57333982	          0.20370482	         -0.41080362	          2.01437044	          0.17595676	         -0.19722356	          1.57549453	          0.19877313	         -0.33211949	          1.87306762	          1.17960775	         -0.19778180	          1.87395585	          1.18409610	         -0.30392334	
          0.73333329	          1.89097095	          0.83092982	         -0.25777084	          3.28561878	         -2.33482122	          2.74066854	         18.83704948	          2.68173718	         -0.56075811	        -16.27251625	         -2.20008421	          0.00000000	          0.00000000	        -13.54279613	         -0.07190440	         -5.73143959	        -27.13049126	          3.52757955	          0.00000000	          0.00000000	         -3.81683445	          4.45846510	         -3.30953693	        -46.61374721	        274.29877700	         -2.73671228	          1.98099487	          0.00000000	         -0.20244604	         48.50615681	        208.49306279	         -8.71878153	          1.62484961	          0.00000000	         -0.27406644	          0.00000000	         -0.18583084	          0.00000000	          0.00000000	          0.31199768	          0.00000000	          1.85696173	          0.75781167	         -0.26177934	          1.85209334	          0.75651246	         -0.20457320	          1.86183000	          0.75911081	         -0.31898549	          1.92284715	          0.41649669	         -0.19666129	          1.73595273	          0.42644301	         -0.30554658	          1.98926783	          0.06507672	         -0.20540899	          1.53659201	          0.12461395	         -0.27945313	          1.89097095	          0.83092982	         -0.25777084	          1.89683330	          0.83454823	         -0.14826572	          1.88510859	          0.82731140	         -0.36727592	          1.71630991	          0.85962844	         -0.21143766	          1.71595478	          0.85744107	         -0.26502651	          1.95737350	          0.42345265	         -0.13771236	          1.74453270	          0.40691197	         -0.36236235	          1.92687452	          0.42108253	         -0.25965074	          1.77368116	          0.41229939	         -0.24132481	          1.98523605	          0.06350642	         -0.16815943	          1.52796781	          0.12776810	         -0.31477907	          1.99054456	          0.06131721	         -0.23902355	          1.53735912	          0.12901022	         -0.24608032	          1.87818897	          1.18315506	         -0.25331244	          1.88799906	          1.08168006	         -0.26030666	          1.76975846	          1.25170374	         -0.24623601	          2.07178998	          0.05376425	         -0.20368160	          1.59973156	          0.05660305	         -0.28512907	          2.02419496	          0.59018379	         -0.17594147	          1.88702035	          0.53726518	         -0.39435261	          1.96825290	          0.61113840	         -0.13276121	          1.88412762	          0.58527547	         -0.32653213	          1.97352791	          0.55400693	         -0.13992301	          1.86597371	          0.53118527	         -0.31591511	          2.09081173	          0.20074461	         -0.18160222	          1.57978094	          0.20763755	         -0.41192606	          2.01670480	          0.17541492	         -0.19724530	          1.58249497	          0.20255278	         -0.33330643	          1.88075912	          1.18095350	         -0.19703488	          1.88125288	          1.18569231	         -0.30338684	
